#!OML:ASF F:\twosubjects\two\Thursday\Session 1\justin.ASF
:FULLY-SPECIFIED
:DEGREES
305
root 22.5943 16.1526 -2.30267 8.92743 -28.5961 -4.1536
lowerback 28.0076 1.62494 -6.70481
upperback 7.24437 -0.00488415 -0.329073
thorax -7.33174 -0.023089 3.50812
lowerneck -6.59618 -15.3871 -18.5962
upperneck -19.1993 -17.9993 28.9029
head 0.370453 -9.39627 11.0713
rclavicle 3.10104e-014 2.38542e-015
rhumerus -23.6835 -7.87869 -82.1321
rradius 45.459
rwrist -5.01977
rhand -14.7495 18.3792
rfingers 7.12502
rthumb 11.4064 -11.2905
lclavicle 3.10104e-014 2.38542e-015
lhumerus -30.8697 -9.00133 88.0976
lradius 70.197
lwrist -11.2532
lhand -18.5557 30.4358
lfingers 7.12502
lthumb 7.73403 60.2743
rfemur -26.3075 -14.1877 13.4329
rtibia 61.4665
rfoot -34.2955 -15.9561
rtoes -27.7739
lfemur -45.3686 6.36726 3.17053
ltibia 52.3551
lfoot -11.4294 -11.3847
ltoes -26.1895
306
root 22.5844 16.1807 -2.40608 9.04937 -28.5687 -4.21331
lowerback 28.2773 1.6476 -6.57364
upperback 7.36171 0.0482871 -0.230231
thorax -7.33723 -0.00380601 3.52676
lowerneck -7.21527 -15.4103 -18.4738
upperneck -19.0303 -17.9722 28.7418
head 0.472044 -9.33901 10.9481
rclavicle 3.89618e-014 -5.32743e-014
rhumerus -23.4451 -8.78022 -82.1939
rradius 46.2702
rwrist -5.23005
rhand -14.877 16.9335
rfingers 7.12502
rthumb 11.2834 -12.743
lclavicle 3.89618e-014 -5.32743e-014
lhumerus -30.6388 -9.082 88.2833
lradius 70.1644
lwrist -11.8947
lhand -19.3879 30.9706
lfingers 7.12502
lthumb 6.93074 60.8372
rfemur -26.7425 -13.9136 13.7522
rtibia 61.4537
rfoot -34.1905 -15.5521
rtoes -27.5343
lfemur -45.3925 6.20959 3.55302
ltibia 51.7707
lfoot -10.8404 -11.4921
ltoes -25.7616
307
root 22.5766 16.1979 -2.50744 9.20048 -28.5777 -4.09775
lowerback 28.3496 1.6309 -6.44574
upperback 7.41955 0.05354 -0.269742
thorax -7.30907 -0.00542547 3.40739
lowerneck -6.90458 -15.3948 -18.8541
upperneck -19.5183 -17.8931 29.3934
head 0.407637 -9.34891 11.2814
rclavicle 2.8625e-014 3.89618e-014
rhumerus -22.8582 -10.4383 -82.4027
rradius 46.0716
rwrist -5.27338
rhand -15.7447 15.3733
rfingers 7.12502
rthumb 10.4464 -14.3472
lclavicle 2.8625e-014 3.89618e-014
lhumerus -30.5941 -9.11143 88.3573
lradius 70.1456
lwrist -12.7569
lhand -19.6415 31.0619
lfingers 7.12502
lthumb 6.68587 60.9364
rfemur -27.3862 -13.903 13.899
rtibia 61.503
rfoot -33.8775 -15.2326
rtoes -27.345
lfemur -45.5388 6.15707 3.66705
ltibia 51.2769
lfoot -10.6418 -11.3698
ltoes -24.7085
308
root 22.5746 16.2149 -2.59026 9.13331 -28.7045 -3.34309
lowerback 28.2239 1.56364 -6.69533
upperback 7.42082 -0.118757 -0.565624
thorax -7.22742 -0.0868106 3.27694
lowerneck -6.52819 -15.3348 -18.9695
upperneck -19.9452 -17.7928 29.759
head 0.274772 -9.35417 11.4924
rclavicle -3.81667e-014 1.19271e-014
rhumerus -21.5495 -13.6568 -82.7478
rradius 44.4139
rwrist -3.67237
rhand -15.7713 15.4162
rfingers 7.12502
rthumb 10.4207 -14.3056
lclavicle -3.81667e-014 1.19271e-014
lhumerus -30.7879 -8.89479 88.2646
lradius 70.3589
lwrist -13.6504
lhand -19.5157 30.7996
lfingers 7.12502
lthumb 6.80738 60.6701
rfemur -28.0818 -14.2822 13.2988
rtibia 61.6356
rfoot -33.594 -14.442
rtoes -27.0873
lfemur -45.7182 6.03886 3.00406
ltibia 50.9133
lfoot -10.8508 -11.0191
ltoes -26.705
309
root 22.575 16.2272 -2.66837 9.129 -28.6521 -2.78328
lowerback 28.1398 1.454 -6.9238
upperback 7.37935 -0.31835 -0.624469
thorax -7.2095 -0.177604 3.40837
lowerneck -7.02141 -15.4296 -18.7019
upperneck -19.411 -17.9608 29.069
head 0.404424 -9.36802 11.126
rclavicle 5.32743e-014 -2.70347e-014
rhumerus -20.6467 -16.2383 -82.7476
rradius 43.1936
rwrist -2.31029
rhand -15.61 15.5749
rfingers 7.12502
rthumb 10.5764 -14.1389
lclavicle 5.32743e-014 -2.70347e-014
lhumerus -30.9684 -8.60927 88.3945
lradius 70.5552
lwrist -14.211
lhand -19.1483 31.1298
lfingers 7.12502
lthumb 7.16202 60.9886
rfemur -28.7284 -14.6738 12.9409
rtibia 61.8521
rfoot -33.5685 -13.7402
rtoes -25.837
lfemur -45.8981 5.80004 2.54763
ltibia 50.6984
lfoot -11.1221 -10.6463
ltoes -26.3473
310
root 22.5792 16.226 -2.74871 9.3107 -28.6064 -2.71375
lowerback 28.1076 1.34137 -6.74919
upperback 7.38043 -0.401551 -0.544648
thorax -7.18606 -0.218851 3.42462
lowerneck -7.40671 -15.5207 -18.7404
upperneck -19.0616 -18.0885 28.6848
head 0.533715 -9.37361 10.9346
rclavicle 6.36111e-015 3.97569e-015
rhumerus -20.0599 -18.2065 -82.6223
rradius 42.516
rwrist -1.6361
rhand -15.4435 15.8553
rfingers 7.12502
rthumb 10.737 -13.8504
lclavicle 6.36111e-015 3.97569e-015
lhumerus -31.0627 -8.36897 88.5411
lradius 70.759
lwrist -14.5995
lhand -19.0047 31.5856
lfingers 7.12502
lthumb 7.30058 61.4396
rfemur -29.4335 -14.7096 13.1627
rtibia 62.1322
rfoot -33.4682 -13.5171
rtoes -24.5207
lfemur -46.0726 5.62072 2.67859
ltibia 50.6848
lfoot -11.2949 -10.3524
ltoes -24.3599
311
root 22.599 16.2308 -2.81572 9.2513 -28.9299 -2.30375
lowerback 28.1858 1.312 -6.63853
upperback 7.41426 -0.438253 -0.772079
thorax -7.18728 -0.23882 3.11983
lowerneck -7.42784 -15.5393 -19.0755
upperneck -19.0559 -18.0865 29.0134
head 0.622896 -9.36738 11.0874
rclavicle -2.38542e-015 -2.38542e-015
rhumerus -19.5066 -20.0407 -82.8666
rradius 42.1004
rwrist -0.93178
rhand -15.1986 15.7599
rfingers 7.12502
rthumb 10.9732 -13.9333
lclavicle -2.38542e-015 -2.38542e-015
lhumerus -31.0574 -8.2572 88.4001
lradius 70.9551
lwrist -14.9836
lhand -19.021 31.2926
lfingers 7.12502
lthumb 7.28488 61.1472
rfemur -30.1622 -14.8553 12.967
rtibia 62.3968
rfoot -33.0824 -13.5659
rtoes -25.1358
lfemur -46.0603 5.54247 2.34819
ltibia 50.941
lfoot -12.088 -9.80619
ltoes -25.3618
312
root 22.6296 16.2491 -2.87098 9.06057 -29.5225 -1.90254
lowerback 28.385 1.36747 -6.61482
upperback 7.44734 -0.402856 -0.983802
thorax -7.25328 -0.223023 2.85954
lowerneck -8.0109 -15.4594 -18.4238
upperneck -18.764 -17.9812 28.3242
head 0.601964 -9.27717 10.7309
rclavicle 4.85035e-014 1.43125e-014
rhumerus -19.2024 -21.2855 -83.0061
rradius 41.9524
rwrist -0.384107
rhand -14.8038 16.3132
rfingers 7.12502
rthumb 11.354 -13.3594
lclavicle 4.85035e-014 1.43125e-014
lhumerus -31.021 -7.97814 88.3567
lradius 71.0115
lwrist -15.4781
lhand -19.3346 31.0389
lfingers 7.12502
lthumb 6.98217 60.9037
rfemur -30.7823 -15.278 12.6896
rtibia 62.6041
rfoot -32.5339 -13.4232
rtoes -26.5067
lfemur -45.7914 5.62441 1.88129
ltibia 51.5007
lfoot -13.4137 -8.88332
ltoes -28.6005
313
root 22.6573 16.2615 -2.92743 9.04878 -30.0363 -1.91095
lowerback 28.5149 1.39868 -6.46056
upperback 7.44798 -0.331309 -0.943326
thorax -7.32456 -0.19003 2.79325
lowerneck -8.35189 -15.3415 -18.149
upperneck -18.4999 -17.8388 27.6132
head 0.563524 -9.16146 10.4548
rclavicle 1.66979e-014 -3.18055e-015
rhumerus -19.3284 -21.7064 -82.8061
rradius 42.192
rwrist -0.34723
rhand -14.4557 17.0642
rfingers 7.12502
rthumb 11.6897 -12.5897
lclavicle 1.66979e-014 -3.18055e-015
lhumerus -31.1887 -7.44776 88.5005
lradius 71.0522
lwrist -15.9183
lhand -19.8575 30.8576
lfingers 7.12502
lthumb 6.47736 60.7386
rfemur -31.3038 -15.467 12.7974
rtibia 62.7826
rfoot -32.346 -13.0356
rtoes -27.1042
lfemur -45.6607 5.79027 1.89172
ltibia 52.3884
lfoot -13.7062 -8.49591
ltoes -27.0971
314
root 22.6833 16.2636 -2.98579 9.01656 -30.4603 -1.85655
lowerback 28.5766 1.44701 -6.39365
upperback 7.47288 -0.249793 -0.848563
thorax -7.33404 -0.1539 2.83372
lowerneck -8.50907 -15.2314 -18.0421
upperneck -18.3834 -17.7015 27.0459
head 0.49593 -9.06228 10.2707
rclavicle -2.3059e-014 3.33958e-014
rhumerus -19.6092 -21.4882 -82.543
rradius 42.7961
rwrist -0.922659
rhand -14.6506 15.6406
rfingers 7.12502
rthumb 11.5017 -14.0239
lclavicle -2.3059e-014 3.33958e-014
lhumerus -31.3831 -6.96848 88.6722
lradius 71.1937
lwrist -16.0133
lhand -20.318 30.0761
lfingers 7.12502
lthumb 6.03284 59.9702
rfemur -31.7615 -15.3242 12.808
rtibia 62.9773
rfoot -32.4115 -12.6327
rtoes -26.7211
lfemur -45.6748 5.94564 1.88342
ltibia 53.5391
lfoot -13.4322 -8.75282
ltoes -23.266
